<svg id="Layer_1" xmlns="http://www.w3.org/2000/svg" viewBox="0 0 267 243"><style>.st0{fill:#ec7405}.st1{opacity:.25;fill:#FFF;enable-background:new}</style><path class="st0" d="M21.9 139.9C12.4 95 2.2 53.5 27 15.4 30.6 9.9 34.5 5 38.8 0H16.2C7.3 0 0 7.1 0 16v210.5c0 8.9 7.3 16.5 16.2 16.5h49.7c-28.4-26-35.5-63.2-44-103.1zM251 0h-36c8.4 10 15.7 22.7 21.4 37.3l-74.5 15.8c-8.2-15.8-20.6-28.9-44.9-23.7-13.4 2.8-22.3 10.4-26.2 18.7-4.8 10.2-7.2 21.6 4.4 76.1 11.6 54.4 18.4 63.9 27 71.3 7 5.9 18.2 9.3 31.6 6.4C178 196.7 184 179.7 185 162l74.5-15.7c2 43.3-13.1 75.8-39 96.8H251c8.9 0 16-7.5 16-16.5V16c0-8.9-7-16-16-16z"/><path class="st1" d="M251 0H16.2C7.3 0 0 7.1 0 16v76.8c38.5 7.7 84.3 12.2 133.5 12.2S229 100.5 267 92.8V16c0-8.9-7-16-16-16z"/></svg>