<svg id="Layer_3" data-name="Layer 3" xmlns="http://www.w3.org/2000/svg" xmlns:xlink="http://www.w3.org/1999/xlink" viewBox="0 0 552.96 290.88"><defs><style>.cls-1{fill:url(#radial-gradient);}.cls-2{fill:#6682ba;}.cls-3{fill:#fff;}.cls-4{fill:#00000e;}</style><radialGradient id="radial-gradient" cx="137.48" cy="58.44" r="363.06" gradientTransform="translate(28.52 -7.31)" gradientUnits="userSpaceOnUse"><stop offset="0" stop-color="#fff"/><stop offset="0.5" stop-color="#4d6998"/><stop offset="1" stop-color="#1d1d1b"/></radialGradient></defs><title>php-logo</title><ellipse class="cls-1" cx="276.48" cy="145.44" rx="276.48" ry="145.44"/><ellipse class="cls-2" cx="276.48" cy="145.44" rx="265.68" ry="134.64"/><path class="cls-3" d="M328.3,187l13.18-67.83c3-15.31.5-26.73-7.35-33.94-7.6-7-20.51-10.38-39.46-10.38H271.84l6.54-33.6a4.32,4.32,0,0,0-4.24-5.15h-31.5a4.34,4.34,0,0,0-4.25,3.5l-14,72A40.48,40.48,0,0,0,215,90.75c-9.24-10.58-23.85-15.94-43.44-15.94h-61a4.32,4.32,0,0,0-4.24,3.5L77.91,224.06a4.32,4.32,0,0,0,4.24,5.14H113.9a4.31,4.31,0,0,0,4.24-3.49L125,190.45h23.64c12.4,0,22.82-1.34,31-4a60.61,60.61,0,0,0,22.72-13.61,70,70,0,0,0,13.43-16.67l-5.66,29.13a4.31,4.31,0,0,0,4.24,5.14h31.5a4.32,4.32,0,0,0,4.24-3.49l15.55-80h21.61c9.21,0,11.91,1.84,12.64,2.63s2,3.25.5,11.24l-12.53,64.49a4.31,4.31,0,0,0,4.24,5.14h32A4.32,4.32,0,0,0,328.3,187Zm-146-56c-2,10.16-5.71,17.42-11.08,21.56s-14.2,6.33-26,6.33H131.14l10.18-52.36h18.19c13.36,0,18.75,2.86,20.91,5.26C183.42,115,184.05,121.67,182.26,130.92Z" transform="translate(2 2)"/><path class="cls-3" d="M463,90.75c-9.23-10.58-23.85-15.94-43.44-15.94H358.51a4.32,4.32,0,0,0-4.24,3.5L325.94,224.06a4.32,4.32,0,0,0,4.24,5.14h31.75a4.31,4.31,0,0,0,4.24-3.49L373,190.45h23.64c12.4,0,22.82-1.34,30.95-4a60.54,60.54,0,0,0,22.72-13.61,67.71,67.71,0,0,0,21.26-38.06C475.2,116.22,472.31,101.41,463,90.75Zm-32.92,40.17c-2,10.16-5.71,17.42-11.09,21.56s-14.19,6.33-26,6.33H379l10.17-52.36h18.19c13.37,0,18.75,2.86,20.92,5.26C431.23,115,431.87,121.67,430.08,130.92Z" transform="translate(2 2)"/><path class="cls-4" d="M159.51,102.13q18.09,0,24.12,6.68t2.87,22.93q-3.28,16.92-12.69,24.16t-28.6,7.23H125.9l11.85-61ZM82.15,224.88H113.9l7.53-38.75h27.2q18,0,29.62-3.78a56.14,56.14,0,0,0,21.13-12.68A63.35,63.35,0,0,0,219.32,134q5-25.92-7.6-40.38T171.53,79.13h-61Z" transform="translate(2 2)"/><path class="cls-4" d="M242.64,40.38h31.5L266.6,79.13h28.07q26.47,0,36.54,9.24t6,29.94l-13.18,67.82h-32l12.53-64.49q2.13-11-1.58-15t-15.8-4H262l-16.22,83.5h-31.5Z" transform="translate(2 2)"/><path class="cls-4" d="M407.32,102.13q18.1,0,24.13,6.68t2.87,22.93q-3.3,16.92-12.69,24.16T393,163.13H373.72l11.85-61ZM330,224.88h31.75l7.53-38.75h27.19q18,0,29.62-3.78a56.17,56.17,0,0,0,21.14-12.68A63.26,63.26,0,0,0,467.13,134q5-25.92-7.59-40.38T419.35,79.13H358.29Z" transform="translate(2 2)"/></svg>
