<svg id="Ebene_1" xmlns="http://www.w3.org/2000/svg" viewBox="0 0 134.3 162.8"><style>.st0{fill:#fff}</style><path d="M121.9 56.1c0 31-25.1 56.1-56.1 56.1S9.7 87.1 9.7 56.1 34.8 0 65.8 0c31 .1 56.1 25.2 56.1 56.1z"/><path class="st0" d="M90.3 20.8c-5.7.2-10.7 3.3-14.4 7.7-4.1 4.8-6.8 10.4-8.8 16.2-3.5-2.9-6.2-6.6-11.9-8.2-4.4-1.3-8.9-.7-13.1 2.4-2 1.5-3.4 3.7-4 5.9-1.7 5.5 1.8 10.4 3.4 12.2l3.4 3.7c.7.7 2.4 2.6 1.6 5.3-.9 2.9-4.5 4.8-8.1 3.7-1.6-.5-4-1.7-3.4-3.4.2-.7.7-1.2 1-1.8.2-.5.4-.9.4-1.1.7-2.2-.2-5-2.6-5.7-2.2-.7-4.4-.1-5.3 2.7-1 3.2.5 8.9 8.7 11.4 9.5 2.9 17.6-2.3 18.7-9 .7-4.2-1.2-7.4-4.7-11.4L48.4 48c-1.7-1.7-2.3-4.7-.5-6.9 1.5-1.9 3.7-2.7 7.2-1.8 5.2 1.4 7.4 5 11.3 7.9-1.6 5.2-2.6 10.4-3.5 15.1l-.6 3.5C59.5 80 57.4 87.9 52 92.4c-1.1.8-2.7 1.9-5 2-1.2 0-1.6-.8-1.7-1.2 0-.9.7-1.3 1.2-1.7.7-.4 1.8-1.1 1.7-3.2-.1-2.5-2.1-4.6-5.1-4.5-2.2.1-5.6 2.2-5.5 6 .1 4 3.8 6.9 9.4 6.8 3-.1 9.6-1.3 16.2-9.1 7.6-8.9 9.8-19.2 11.4-26.7l1.8-9.9c1 .1 2.1.2 3.2.2 9.5.2 14.3-4.7 14.3-8.3 0-2.2-1.4-4.3-3.5-4.3-1.5 0-3.3 1-3.8 3.1-.4 2 3 3.8.3 5.6-1.9 1.2-5.4 2.1-10.2 1.4l.9-4.9c1.8-9.2 4-20.6 12.4-20.9.6 0 2.9 0 2.9 1.5 0 .5-.1.6-.7 1.8-.6.9-.8 1.6-.8 2.5.1 2.4 1.9 3.9 4.5 3.8 3.5-.1 4.5-3.5 4.4-5.2 0-4-4.3-6.6-10-6.4z"/><path d="M86.6 135.6c5.7 0 9.5 4.1 9.5 9.8 0 5.3-3.9 9.8-9.5 9.8s-9.5-4.4-9.5-9.8c0-5.7 3.8-9.8 9.5-9.8zm0 16.7c4 0 5.8-3.7 5.8-7 0-3.5-2.2-7-5.8-7-3.7 0-5.8 3.4-5.8 7 0 3.4 1.8 7 5.8 7zm-10-15V136h-4.9v-1.8c0-2.5.4-4.4 3.3-4.4h.2c.8.1 1.5-.6 1.5-1.4l.1-1.1c-.7-.1-1.4-.2-2.3-.2-5.1 0-6.2 3-6.2 7.5v1.5h-4.4v1.4c.1.8.8 1.3 1.5 1.3h2.8v15.9h1.9c.8 0 1.4-.6 1.5-1.3v-14.5H75c1-.1 1.6-.8 1.6-1.6zM30.9 136c-.7 0-1.4.5-1.7 1.2l-4.7 14.2h-.1l-4.6-14.2c-.3-.7-1-1.2-1.7-1.2h-2.4l6.3 17.4c.2.6.7 1.6.7 2 0 .4-1 4.6-4.1 4.6h-.2c-.8 0-1.4.5-1.5 1.3l-.1 1.2c.6.1 1.2.3 2.3.3 4.5 0 5.9-4.1 7.2-7.7l6.9-19-2.3-.1zM9 139.8c-2.8-1.5-5.9-2.4-6-5.4 0-3.1 2.9-3.9 5.1-3.9 1 0 1.7.1 2.5.3.8.1 1.4-.6 1.5-1.3l.1-1.1c-1.4-.3-2.8-.5-4.3-.5-4.8 0-8.3 2.4-8.3 7 0 4 2.7 5.6 5.6 7 2.9 1.4 6 2.5 6 5.8 0 3.5-3.3 4.7-5.6 4.7-1.3 0-2.8-.3-4-.7-.8-.1-1.4.6-1.5 1.5l-.1.8c1.7.5 3.4 1 5.2 1 5.3 0 9.5-2.2 9.5-7.7 0-4.2-2.8-6-5.7-7.5zm52 14.8c.7 0 1.4-.5 1.5-1.2v-10.7c0-4.1-1.7-7.1-6.5-7.1-1.7 0-4.5 1-5.8 3.6-1-2.5-3.1-3.6-5.3-3.6-2.7 0-4.6 1-5.9 3.1v-1.2c0-.9-.7-1.5-1.6-1.5h-1.6v18.6h1.9c.9 0 1.6-.7 1.6-1.6v-7.8c0-3.5 1.4-6.9 4.9-6.9 2.8 0 3.3 2.9 3.3 5.2v11.1h1.9c.8 0 1.5-.6 1.5-1.4v-8c0-3.5 1.4-6.9 4.9-6.9 2.8 0 3.3 2.9 3.3 5.2v11.1H61zm53.1 0c.8 0 1.5-.7 1.6-1.5v-9.6c0-5-2.2-8-7-8-2.6 0-5.1 1.3-6.1 3.4h-.1v-1.4c0-.9-.7-1.6-1.6-1.6h-1.8v18.6h1.9c.8 0 1.5-.6 1.5-1.4V146c0-4.5 1.8-7.7 5.7-7.7 3 .2 3.9 2.3 3.9 6.6v9.6l2 .1zm18.5-18.6c-.7 0-1.4.5-1.7 1.2l-4.7 14.2h-.2l-4.6-14.2c-.3-.7-1-1.2-1.7-1.2h-2.4l6.3 17.4c.2.6.7 1.6.7 2 0 .4-1 4.6-4.1 4.6h-.2c-.8 0-1.4.5-1.5 1.3l-.1 1.2c.6.1 1.2.3 2.3.3 4.5 0 5.9-4.1 7.2-7.7l6.9-19-2.2-.1z"/></svg>