<?xml version="1.0" standalone="no"?>
<!DOCTYPE svg PUBLIC "-//W3C//DTD SVG 20010904//EN"
 "http://www.w3.org/TR/2001/REC-SVG-20010904/DTD/svg10.dtd">
<svg version="1.0" xmlns="http://www.w3.org/2000/svg"
 width="716.000000pt" height="716.000000pt" viewBox="0 0 716.000000 716.000000"
 preserveAspectRatio="xMidYMid meet">
<metadata>
Created by potrace 1.11, written by Peter Selinger 2001-2013
</metadata>
<g transform="translate(0.000000,716.000000) scale(0.100000,-0.100000)"
fill="#000000" stroke="none">
<path d="M389 6685 c-194 -39 -337 -185 -375 -382 -21 -112 -21 -5344 0 -5456
40 -205 196 -355 403 -386 86 -13 1153 -15 1153 -3 0 5 -10 17 -21 28 -12 10
-60 71 -108 134 -283 376 -474 831 -645 1540 -88 363 -299 1362 -345 1630 -66
386 -84 577 -84 885 -1 290 17 454 72 680 108 438 345 849 710 1227 l113 118
-403 -1 c-290 -1 -423 -5 -470 -14z"/>
<path d="M5485 6648 c239 -271 381 -476 529 -768 84 -164 159 -341 149 -350
-7 -7 -168 -41 -829 -180 -104 -21 -340 -71 -524 -110 -184 -39 -380 -80 -435
-91 -55 -11 -107 -22 -117 -25 -11 -3 -25 11 -49 53 -241 428 -549 612 -959
573 -345 -33 -632 -185 -784 -414 -102 -154 -146 -329 -146 -582 0 -292 42
-606 161 -1199 180 -902 357 -1516 515 -1790 121 -209 292 -355 489 -419 374
-121 888 16 1119 299 121 149 200 369 221 613 4 45 12 85 17 88 5 3 82 21 171
39 89 19 313 66 497 105 184 39 418 89 520 110 102 21 304 64 449 94 144 31
270 56 278 56 23 0 12 -480 -16 -675 -90 -630 -302 -1101 -690 -1533 l-83 -93
393 3 c374 4 397 5 460 26 174 58 290 190 325 369 21 112 21 5344 0 5456 -39
201 -182 344 -383 383 -60 11 -199 14 -700 14 l-625 0 47 -52z"/>
</g>
</svg>
