<svg xmlns:svg="http://www.w3.org/2000/svg" xmlns="http://www.w3.org/2000/svg" version="1.1" x="0" y="0" viewBox="0 0 66.1 80.2" enable-background="new 0 0 251.5 80.1" xml:space="preserve" width="66.1" height="80.2"><style>.s0{fill:#c76758;}</style><circle cx="34.3" cy="39.3" r="25.2" fill="#f0ebe2"/><g transform="translate(0.0499976,0.05000915)"><path d="m52 57c1 1 2.9 0.7 4.3-0.7C57.7 54.9 58 53 57 52l-16.6-16.6-5 5L52 57ZM18.5 13.5C20 10 19.4 5.7 16.5 2.8 12.7-1 6.6-1 2.8 2.8-1 6.6-1 12.7 2.8 16.5c2.9 2.9 7.1 3.5 10.7 2l18 18 5-5-18-18zM14.1 23.1c-1-1-2.9-0.7-4.3 0.7-1.4 1.4-1.7 3.3-0.7 4.3l15.4 15.4 5-5-15.4-15.4zM63.2 63.6c-2.9-2.9-7.1-3.5-10.7-2l-19.1-19.2-5 5 19.2 19.2c-1.5 3.5-0.9 7.8 2 10.7 3.8 3.8 9.9 3.8 13.7 0C67 73.5 67 67.4 63.2 63.6Z" fill="#c76758"/></g></svg>