<svg id="Ebene_1" xmlns="http://www.w3.org/2000/svg" viewBox="0 0 178.6 155.9"><style>.st0{fill:#fff}.st1{fill:#f47c00}</style><title>contao_original_rgb</title><path class="st0" d="M11.8-.1C5.3-.1 0 5.2 0 11.7v132.4c0 6.5 5.3 11.8 11.8 11.8h155c6.5 0 11.8-5.2 11.8-11.7V11.7c0-6.5-5.3-11.8-11.8-11.8h-155z"/><path class="st1" d="M15.9 94.6c5 23.3 9.2 45.4 23.7 61.4H11.8C5.3 156 0 150.8 0 144.3V11.7C0 5.2 5.3-.1 11.8-.1h20.1C27 4.4 22.7 9.5 19.1 15.1 3.2 39.4 9.8 65.9 15.9 94.6zM166.8-.1h-31.5c7.5 7.5 13.8 17.1 18.5 29.1l-47.9 10.1C100.6 29.1 92.6 20.8 77 24c-8.6 1.8-14.3 6.6-16.9 11.9-3.1 6.5-4.6 13.8 2.8 48.6s11.8 40.8 17.3 45.5c4.5 3.8 11.7 5.9 20.3 4.1 15.6-3.3 19.5-14.2 20.1-25.5l47.9-10.1c1.1 24.8-6.5 44-20.1 57.3h18.2c6.5 0 11.8-5.2 11.8-11.7V11.7c.2-6.5-5.1-11.8-11.6-11.8z"/></svg>