<svg id="Ebene_1" xmlns="http://www.w3.org/2000/svg" viewBox="0 0 193.7 255.9"><style>.st0{fill:#737373}</style><path class="st0" d="M166.9 178.2c-16-2.7-37.9-18.2-37.9-25v-17c0-6.3 8.6-18.2 12.2-29.2.3-1 2.5.2 4.7-2.5 4-5 4.6-12.5 5.5-16 1.5-5.4-5.1-5.6-5.1-5.6s4.9-28.4.5-46.3C141.1 12.3 109.4 0 97.1 0c-12.4 0-44 12.3-49.9 36.7-4.3 17.9.7 46.3.7 46.3s-6.3.2-4.9 5.6c.9 3.4 2 11 6 16 2.1 2.6 3.4 1.4 3.8 2.5C56.4 118 65 129.8 65 136.2v17c0 6.7-21.9 22.2-37.9 25-20.5 3.5-30.7 17.7-25.9 53.1 2.4 17.7 49.1 25.3 95.3 24.6 46.2.7 93.6-7 96-24.6 4.9-35.4-5-49.6-25.6-53.1z"/></svg>